<svg width="231" height="241" viewBox="0 0 231 241" fill="none" xmlns="http://www.w3.org/2000/svg">
<g clip-path="url(#clip0_1_600)" filter="url(#filter0_d_1_600)">
<path fill-rule="evenodd" clip-rule="evenodd" d="M115.5 212.581C165.848 212.581 206.663 171.766 206.663 121.418C206.663 71.0703 165.848 30.2555 115.5 30.2555C65.1523 30.2555 24.3375 71.0703 24.3375 121.418C24.3375 171.766 65.1523 212.581 115.5 212.581Z" stroke="#3AD29F" stroke-width="0.613889" stroke-dasharray="3.68 3.68"/>
<path fill-rule="evenodd" clip-rule="evenodd" d="M115.5 231.918C176.527 231.918 226 182.445 226 121.418C226 60.3906 176.527 10.918 115.5 10.918C54.4725 10.918 5 60.3906 5 121.418C5 182.445 54.4725 231.918 115.5 231.918Z" stroke="#3AD29F" stroke-width="0.613889" stroke-dasharray="3.68 3.68"/>
<path d="M189.455 156.621C189.458 143.756 179.67 133.002 166.862 131.798C154.054 130.593 142.432 139.334 140.037 151.974L63.4269 149.896L64.2679 163.058C64.2679 163.058 53.3437 188.264 110.758 194.98V220.457H177.131V178.098C184.758 173.632 189.448 165.46 189.455 156.621Z" fill="url(#paint0_linear_1_600)"/>
<path d="M66.8984 163.611C66.8984 163.611 56.4377 187.749 111.421 194.188V218.597H174.986V153.957L66.0819 151.004L66.8984 163.611Z" fill="#BE7C5E"/>
<path d="M98.6672 62.8807C95.2168 68.3253 88.0171 69.9614 82.5526 66.5425L48.4234 44.0527C42.9788 40.6023 41.3427 33.4026 44.7616 27.9381C48.2115 22.5009 55.402 20.8657 60.8639 24.2763L94.993 46.7661C100.442 50.2124 102.084 57.413 98.6672 62.8807Z" fill="url(#paint1_linear_1_600)"/>
<path d="M96.7764 61.6528C93.5692 66.7137 86.877 68.2346 81.7975 65.0569L50.0625 44.1355C45.0016 40.9283 43.4808 34.2361 46.6585 29.1566C49.8657 24.0957 56.5579 22.5749 61.6374 25.7526L93.3662 46.6617C98.4368 49.8673 99.9613 56.5692 96.7764 61.6528Z" fill="#BE7C5E"/>
<path d="M162.92 181.315C176.103 181.315 186.791 170.628 186.791 157.444C186.791 144.26 176.103 133.573 162.92 133.573C149.736 133.573 139.049 144.26 139.049 157.444C139.049 170.628 149.736 181.315 162.92 181.315Z" fill="#BE7C5E"/>
<path d="M158.623 0H67.1777C65.1011 0 63.4177 1.68344 63.4177 3.76007V174.869C63.4177 176.946 65.1011 178.629 67.1777 178.629H158.623C160.699 178.629 162.383 176.946 162.383 174.869V3.76007C162.383 1.68344 160.699 0 158.623 0Z" fill="url(#paint2_linear_1_600)"/>
<path d="M156.855 2.41565H68.9396C66.6273 2.41565 64.7529 4.29011 64.7529 6.60237V172.033C64.7529 174.345 66.6273 176.22 68.9396 176.22H156.855C159.167 176.22 161.041 174.345 161.041 172.033V6.60237C161.041 4.29011 159.167 2.41565 156.855 2.41565Z" fill="white"/>
<path d="M137.087 6.77429C136.512 10.5829 133.244 13.4022 129.392 13.4135H96.1379C92.2873 13.4007 89.0213 10.5817 88.4459 6.77429H70.8273C69.8572 6.77429 68.9266 7.15827 68.2403 7.84394C67.5541 8.52961 67.1685 9.45992 67.1685 10.43V168.199C67.1685 169.17 67.5525 170.1 68.2382 170.786C68.9238 171.473 69.8541 171.858 70.8242 171.858H154.97C155.94 171.858 156.871 171.474 157.557 170.789C158.243 170.103 158.629 169.173 158.629 168.203V10.4331C158.629 9.46299 158.245 8.53235 157.559 7.84611C156.873 7.15987 155.943 6.77429 154.973 6.77429H137.087Z" fill="#2F56F8"/>
<path d="M123.149 8.85229H102.918C102.579 8.85229 102.304 9.12714 102.304 9.46618V9.57975C102.304 9.91879 102.579 10.1936 102.918 10.1936H123.149C123.488 10.1936 123.763 9.91879 123.763 9.57975V9.46618C123.763 9.12714 123.488 8.85229 123.149 8.85229Z" fill="#DBDBDB"/>
<path d="M128.321 10.3894C128.873 10.3894 129.321 9.94169 129.321 9.3894C129.321 8.83712 128.873 8.3894 128.321 8.3894C127.769 8.3894 127.321 8.83712 127.321 9.3894C127.321 9.94169 127.769 10.3894 128.321 10.3894Z" fill="#DBDBDB"/>
<path d="M178.35 161.655C171.422 163.258 166.668 158.739 165.065 151.815L149.147 92.7064C147.563 85.7549 151.89 78.8289 158.831 77.2027C165.783 75.6188 172.709 79.945 174.335 86.8868L187.325 147.521C188.927 154.448 185.275 160.053 178.35 161.655Z" fill="url(#paint3_linear_1_600)"/>
<path d="M172.549 88.3337C171.198 82.4883 165.365 78.8446 159.52 80.1952C153.674 81.5458 150.031 87.3792 151.381 93.2245L166.019 156.576C167.369 162.421 173.203 166.065 179.048 164.714C184.893 163.363 188.537 157.53 187.186 151.685L172.549 88.3337Z" fill="#BE7C5E"/>
<path d="M186.69 210.61H95.8341V231.789H186.69V210.61Z" fill="url(#paint4_linear_1_600)"/>
<path d="M184.234 213.065H98.2896V229.64H184.234V213.065Z" fill="#4D8AF0"/>
<path d="M85.4194 126.289C82.011 131.669 74.8973 133.286 69.4982 129.908L46.6094 115.098C41.2295 111.69 39.6125 104.576 42.9905 99.1768C46.399 93.7969 53.5126 92.18 58.9117 95.5579L81.8006 110.368C87.1805 113.776 88.7974 120.89 85.4194 126.289Z" fill="url(#paint5_linear_1_600)"/>
<path d="M79.6735 157.637C76.2346 163.067 69.0562 164.699 63.608 161.29L49.4302 150.952C44.0009 147.513 42.3689 140.335 45.7776 134.887C49.2164 129.457 56.3948 127.825 61.843 131.234L76.0208 141.575C81.4482 145.014 83.0801 152.19 79.6735 157.637Z" fill="url(#paint6_linear_1_600)"/>
<g opacity="0.5">
<path opacity="0.5" d="M112.897 116.924C128.144 116.924 140.504 104.564 140.504 89.3178C140.504 74.0711 128.144 61.7112 112.897 61.7112C97.6504 61.7112 85.2905 74.0711 85.2905 89.3178C85.2905 104.564 97.6504 116.924 112.897 116.924Z" fill="url(#paint7_linear_1_600)"/>
</g>
<path d="M112.897 115.301C127.247 115.301 138.88 103.668 138.88 89.3177C138.88 74.9678 127.247 63.3349 112.897 63.3349C98.5472 63.3349 86.9143 74.9678 86.9143 89.3177C86.9143 103.668 98.5472 115.301 112.897 115.301Z" fill="#69F0AE"/>
<path d="M101.62 85.8493L111.362 94.7814L125.166 74.4832L130.04 78.544L111.362 102.903L97.5591 87.4761L101.62 85.8493Z" fill="white"/>
<path d="M78.5285 156.867C75.3213 161.928 68.6291 163.449 63.5497 160.271L50.3265 150.645C45.2656 147.438 43.7448 140.746 46.9225 135.666C50.1297 130.606 56.8219 129.085 61.9014 132.262L75.1215 141.907C80.1722 145.112 81.6932 151.791 78.5285 156.867Z" fill="#BE7C5E"/>
<path d="M84.161 125.476C80.9538 130.537 74.2615 132.058 69.1821 128.88L47.6469 114.945C42.586 111.737 41.0651 105.045 44.2428 99.9656C47.4501 94.9048 54.1423 93.3839 59.2217 96.5616L80.757 110.497C85.8179 113.704 87.3387 120.396 84.161 125.476Z" fill="#BE7C5E"/>
<path d="M91.3373 95.0883C87.9121 100.492 80.7664 102.115 75.3425 98.7225L46.3362 79.8363C40.9327 76.411 39.3091 69.2653 42.702 63.8414C46.1272 58.4379 53.273 56.8143 58.6969 60.2072L87.7031 79.0935C93.1066 82.5187 94.7302 89.6644 91.3373 95.0883Z" fill="url(#paint8_linear_1_600)"/>
<path d="M89.7965 94.1061C86.5893 99.167 79.897 100.688 74.8176 97.5101L47.6499 79.8209C42.589 76.6137 41.0682 69.9215 44.2459 64.842C47.4531 59.7811 54.1453 58.2603 59.2248 61.438L86.3894 79.1272C91.4514 82.3334 92.9736 89.0258 89.7965 94.1061Z" fill="#BE7C5E"/>
</g>
<defs>
<filter id="filter0_d_1_600" x="0" y="0" width="231" height="241" filterUnits="userSpaceOnUse" color-interpolation-filters="sRGB">
<feFlood flood-opacity="0" result="BackgroundImageFix"/>
<feColorMatrix in="SourceAlpha" type="matrix" values="0 0 0 0 0 0 0 0 0 0 0 0 0 0 0 0 0 0 127 0" result="hardAlpha"/>
<feOffset dy="4"/>
<feGaussianBlur stdDeviation="2"/>
<feComposite in2="hardAlpha" operator="out"/>
<feColorMatrix type="matrix" values="0 0 0 0 0 0 0 0 0 0 0 0 0 0 0 0 0 0 0.25 0"/>
<feBlend mode="normal" in2="BackgroundImageFix" result="effect1_dropShadow_1_600"/>
<feBlend mode="normal" in="SourceGraphic" in2="effect1_dropShadow_1_600" result="shape"/>
</filter>
<linearGradient id="paint0_linear_1_600" x1="126.446" y1="220.472" x2="126.446" y2="131.691" gradientUnits="userSpaceOnUse">
<stop stop-color="#808080" stop-opacity="0.25"/>
<stop offset="0.54" stop-color="#808080" stop-opacity="0.12"/>
<stop offset="1" stop-color="#808080" stop-opacity="0.1"/>
</linearGradient>
<linearGradient id="paint1_linear_1_600" x1="71.7113" y1="68.332" x2="71.7113" y2="22.4929" gradientUnits="userSpaceOnUse">
<stop stop-color="#808080" stop-opacity="0.25"/>
<stop offset="0.54" stop-color="#808080" stop-opacity="0.12"/>
<stop offset="1" stop-color="#808080" stop-opacity="0.1"/>
</linearGradient>
<linearGradient id="paint2_linear_1_600" x1="112.9" y1="178.626" x2="112.9" y2="-0.00306638" gradientUnits="userSpaceOnUse">
<stop stop-color="#808080" stop-opacity="0.25"/>
<stop offset="0.54" stop-color="#808080" stop-opacity="0.12"/>
<stop offset="1" stop-color="#808080" stop-opacity="0.1"/>
</linearGradient>
<linearGradient id="paint3_linear_1_600" x1="168.258" y1="161.975" x2="168.258" y2="76.8712" gradientUnits="userSpaceOnUse">
<stop stop-color="#808080" stop-opacity="0.25"/>
<stop offset="0.54" stop-color="#808080" stop-opacity="0.12"/>
<stop offset="1" stop-color="#808080" stop-opacity="0.1"/>
</linearGradient>
<linearGradient id="paint4_linear_1_600" x1="141.268" y1="231.783" x2="141.268" y2="210.604" gradientUnits="userSpaceOnUse">
<stop stop-color="#808080" stop-opacity="0.25"/>
<stop offset="0.54" stop-color="#808080" stop-opacity="0.12"/>
<stop offset="1" stop-color="#808080" stop-opacity="0.1"/>
</linearGradient>
<linearGradient id="paint5_linear_1_600" x1="64.2004" y1="131.673" x2="64.2004" y2="93.7961" gradientUnits="userSpaceOnUse">
<stop stop-color="#808080" stop-opacity="0.25"/>
<stop offset="0.54" stop-color="#808080" stop-opacity="0.12"/>
<stop offset="1" stop-color="#808080" stop-opacity="0.1"/>
</linearGradient>
<linearGradient id="paint6_linear_1_600" x1="62.727" y1="163.07" x2="62.727" y2="129.451" gradientUnits="userSpaceOnUse">
<stop stop-color="#808080" stop-opacity="0.25"/>
<stop offset="0.54" stop-color="#808080" stop-opacity="0.12"/>
<stop offset="1" stop-color="#808080" stop-opacity="0.1"/>
</linearGradient>
<linearGradient id="paint7_linear_1_600" x1="112.897" y1="116.924" x2="112.897" y2="61.7081" gradientUnits="userSpaceOnUse">
<stop stop-color="#808080" stop-opacity="0.25"/>
<stop offset="0.54" stop-color="#808080" stop-opacity="0.12"/>
<stop offset="1" stop-color="#808080" stop-opacity="0.1"/>
</linearGradient>
<linearGradient id="paint8_linear_1_600" x1="67.0181" y1="100.506" x2="67.0181" y2="58.4453" gradientUnits="userSpaceOnUse">
<stop stop-color="#808080" stop-opacity="0.25"/>
<stop offset="0.54" stop-color="#808080" stop-opacity="0.12"/>
<stop offset="1" stop-color="#808080" stop-opacity="0.1"/>
</linearGradient>
<clipPath id="clip0_1_600">
<rect width="223" height="233" fill="white" transform="translate(4)"/>
</clipPath>
</defs>
</svg>
